<svg xmlns="http://www.w3.org/2000/svg" version="1.1" xmlns:xlink="http://www.w3.org/1999/xlink"
    width="512" height="512" x="0" y="0" viewBox="0 0 455.925 455.925"
    style="enable-background:new 0 0 512 512" xml:space="preserve" class=""><g><path d="M83.212 86.527h-4.339V37.593c0-13.72-11.119-24.839-24.839-24.839-13.719 0-24.838 11.119-24.838 24.839v48.934h-4.341C11.119 86.527 0 97.661 0 111.365c0 13.736 11.119 24.855 24.854 24.855h4.341v282.111c0 13.721 11.119 24.84 24.838 24.84 13.72 0 24.839-11.119 24.839-24.84V136.22h4.339c13.735 0 24.854-11.119 24.854-24.855 0-13.704-11.118-24.838-24.853-24.838zM199.17 301.869h-4.341V37.593c0-13.72-11.118-24.839-24.838-24.839-13.734 0-24.853 11.119-24.853 24.839v264.276h-4.341c-13.719 0-24.838 11.117-24.838 24.853 0 13.734 11.119 24.854 24.838 24.854h4.341v66.756c0 13.721 11.119 24.84 24.853 24.84 13.721 0 24.838-11.119 24.838-24.84v-66.756h4.341c13.721 0 24.838-11.119 24.838-24.854s-11.117-24.853-24.838-24.853zM315.128 169.352h-4.341V37.593c0-13.72-11.119-24.839-24.853-24.839-13.72 0-24.838 11.119-24.838 24.839v131.759h-4.341c-13.72 0-24.838 11.134-24.838 24.839 0 13.734 11.118 24.854 24.838 24.854h4.341v199.287c0 13.721 11.118 24.84 24.838 24.84 13.734 0 24.853-11.119 24.853-24.84V219.044h4.341c13.719 0 24.838-11.119 24.838-24.854.001-13.704-11.118-24.838-24.838-24.838zM431.07 53.395h-4.324V37.593c0-13.72-11.135-24.839-24.853-24.839-13.72 0-24.839 11.119-24.839 24.839v15.802h-4.34c-13.735 0-24.855 11.117-24.855 24.853 0 13.734 11.119 24.854 24.855 24.854h4.34v315.231c0 13.721 11.119 24.84 24.839 24.84 13.719 0 24.853-11.119 24.853-24.84V103.101h4.324c13.735 0 24.855-11.119 24.855-24.854s-11.119-24.852-24.855-24.852z" fill="#000000" opacity="1"  class="">

</path>
</g>
</svg>