<svg xmlns="http://www.w3.org/2000/svg" version="1.1" width="512" height="512" x="0" y="0"
    viewBox="0 0 512 512" style="enable-background:new 0 0 512 512" xml:space="preserve" class=""><g><path d="m504.171 239.489-234.667-192c-6.357-5.227-15.189-6.293-22.656-2.773-7.424 3.541-12.181 11.051-12.181 19.285v146.987L34.837 47.489c-6.379-5.227-15.189-6.293-22.656-2.773C4.757 48.257 0 55.767 0 64.001v384c0 8.235 4.757 15.744 12.181 19.285a21.667 21.667 0 0 0 9.152 2.048 21.29 21.29 0 0 0 13.504-4.821l199.829-163.499v146.987c0 8.235 4.757 15.744 12.181 19.285a21.667 21.667 0 0 0 9.152 2.048 21.29 21.29 0 0 0 13.504-4.821l234.667-192a21.35 21.35 0 0 0 7.829-16.512 21.35 21.35 0 0 0-7.828-16.512z" fill="#000000" opacity="1"  class="">

</path>
</g>
</svg>