<svg width="20" height="20" viewBox="0 0 20 20" fill="none" xmlns="http://www.w3.org/2000/svg">
    <path fill-rule="evenodd" clip-rule="evenodd"
        d="M14.3636 5.88951L13.5539 6.35703C13.548 6.36055 13.5421 6.36395 13.5362 6.36725L11.0909 7.77902V6.43496H8.36364C6.55616 6.43496 5.09091 7.90021 5.09091 9.70769C5.09091 10.2106 5.20398 10.6856 5.40558 11.11C5.53484 11.3821 5.41904 11.7075 5.14694 11.8367C4.87484 11.966 4.54946 11.8502 4.4202 11.5781C4.15059 11.0106 4 10.376 4 9.70769C4 7.29772 5.95367 5.34406 8.36364 5.34406H11.0909V4L13.5366 5.41205C13.5423 5.41517 13.5479 5.4184 13.5534 5.42171L14.3636 5.88951ZM14.8531 7.57864C15.1252 7.44938 15.4505 7.56517 15.5798 7.83728C15.8494 8.40482 16 9.03943 16 9.70769C16 12.1177 14.0463 14.0713 11.6364 14.0713H8.36364C8.17902 14.0713 7.99696 14.0598 7.81818 14.0375V15.4154L4.54545 13.5259L7.81818 11.6364V12.9353C7.99541 12.965 8.17761 12.9804 8.36364 12.9804H11.6364C13.4438 12.9804 14.9091 11.5152 14.9091 9.70769C14.9091 9.20475 14.796 8.72975 14.5944 8.30538C14.4652 8.03327 14.581 7.7079 14.8531 7.57864Z"
        fill="#ABABAB" />
</svg>
