<svg width="20" height="20" viewBox="0 0 20 20" fill="none" xmlns="http://www.w3.org/2000/svg">
    <path fill-rule="evenodd" clip-rule="evenodd"
        d="M13 8.4641L16 6.73205L13 5V6.23205L12.5 6.23205C11.6805 6.23205 10.9355 6.71717 10.296 7.30001C9.64441 7.89387 9.01143 8.67523 8.42048 9.4217L8.22288 9.67174L8.22287 9.67175L8.22286 9.67176C7.69481 10.3406 7.20196 10.9648 6.72992 11.4435C6.46655 11.7106 6.22657 11.9144 6.00901 12.0493C5.7905 12.1847 5.62453 12.2321 5.5 12.2321H4V13.2321H5.5C5.87547 13.2321 6.22512 13.0919 6.53591 12.8992C6.84765 12.7059 7.15064 12.441 7.44195 12.1456C7.9557 11.6246 8.48566 10.9531 9.00665 10.2929L9.00665 10.2929L9.00667 10.2929C9.07278 10.2091 9.13875 10.1255 9.20452 10.0424C9.80107 9.28887 10.3868 8.57024 10.9696 8.0391C11.5645 7.49693 12.0695 7.23205 12.5 7.23205H13V8.4641ZM10.1794 10.6069C10.5139 10.989 10.9349 11.4095 11.3697 11.7302C11.8205 12.0628 12.2115 12.232 12.5 12.232H13V11L16 12.7321L13 14.4641V13.232H12.5C11.8816 13.232 11.2727 12.9013 10.776 12.5349C10.2633 12.1567 9.78932 11.6794 9.42708 11.2657L10.1794 10.6069ZM5.5 6.23205C6.07597 6.23205 6.57858 6.61194 6.97041 6.96483C7.18011 7.1537 7.39153 7.36743 7.59784 7.57757L7.65464 7.63544C7.84491 7.82939 8.03258 8.02068 8.22565 8.20335L7.53838 8.92975C7.33098 8.73352 7.13022 8.52887 6.94201 8.337L6.88426 8.27814C6.67606 8.06608 6.48488 7.87334 6.30118 7.70789C5.90621 7.35216 5.65881 7.23205 5.5 7.23205L4 7.23205V6.23205L5.5 6.23205Z"
        fill="#ABABAB" />
</svg>
